<svg width="96" height="94" viewBox="0 0 96 94" fill="none" xmlns="http://www.w3.org/2000/svg">
<path d="M77.7523 83.4076C72.0378 88.0678 65.5544 91.1658 58.8264 92.7454C44.1034 96.2188 28.2008 92.4487 16.5622 81.9851C14.7797 80.3881 13.102 78.634 11.538 76.7228C7.90309 72.2807 5.22935 67.3675 3.46434 62.236C2.51193 59.4696 1.83039 56.6333 1.41972 53.7796C-0.869557 37.9838 4.95849 21.4288 18.2311 10.5987C21.1407 8.22496 24.2513 6.25267 27.493 4.69055C39.1229 -0.947061 52.4391 -1.4445 64.2525 2.88407C65.2661 3.25933 66.2797 3.66949 67.267 4.10584C68.9097 4.84763 70.5174 5.67669 72.0902 6.60175C76.6775 9.33328 80.8716 12.8939 84.4453 17.2661C86.3938 19.6485 88.0627 22.1532 89.4695 24.7625C90.1511 26.0192 90.7714 27.3021 91.3219 28.6024C99.3082 47.3566 94.3539 69.8547 77.761 83.3901L77.7523 83.4076Z" fill="#0166FF"/>
<path d="M77.7611 83.408C72.0466 88.0769 65.5545 91.1662 58.8265 92.7545C44.1034 96.2191 28.2096 92.4491 16.5622 81.9942C15.0244 80.6153 13.5739 79.123 12.2021 77.5173C22.7485 83.8269 35.3745 85.7293 47.2315 82.9367C53.9596 81.3484 60.4429 78.2591 66.1574 73.5902C82.7503 60.0547 87.7045 37.5653 79.7183 18.8024C79.1678 17.5108 78.5387 16.2192 77.8659 14.9625C76.4591 12.3445 74.7902 9.83982 72.8417 7.46609C72.6233 7.20428 72.4136 6.94247 72.1777 6.68066C76.7213 9.39474 80.8979 12.9466 84.4367 17.2839C86.3852 19.6664 88.0628 22.171 89.4608 24.7891C90.1336 26.0458 90.7627 27.3286 91.3132 28.6289C99.2995 47.3831 94.3539 69.8812 77.7523 83.4167L77.7611 83.408Z" fill="#327AFE"/>
<path d="M35.2696 15.7476C33.7842 22.6942 20.4067 22.7553 16.6845 30.0947C12.9622 37.4341 18.6505 37.6784 17.532 40.8027C16.4136 43.9269 12.1321 45.7247 12.1147 48.0286C12.1059 50.3238 23.3164 58.1605 16.7456 64.7581C10.1749 71.347 10.2098 75.0995 14.0981 78.1714C15.1466 79.0005 16.0117 80.3968 16.5622 82.0026C14.7797 80.4055 13.102 78.6514 11.538 76.7402C7.90309 72.2982 5.22935 67.3849 3.46434 62.2535C2.51193 59.487 1.83039 56.6508 1.41972 53.7971C-0.869557 38.0013 4.95849 21.4463 18.2311 10.6161C21.1407 8.24242 24.2513 6.27013 27.493 4.70801C31.2677 7.19519 36.2132 11.3754 35.2696 15.7563V15.7476Z" fill="#6FA3FF"/>
<path d="M77.7522 83.4075C72.0378 88.0677 65.5544 91.1658 58.8264 92.7454C57.175 90.0313 57.4895 86.558 60.4254 83.5646C67.8699 75.9896 82.0949 73.6857 76.4329 68.8423C70.7708 63.9901 46.5324 78.2848 46.8557 69.4619C47.179 60.6389 71.2951 55.1322 70.7621 52.0953C70.2291 49.0583 68.0185 48.4038 68.534 45.393C69.0408 42.3822 82.8201 38.6994 79.9716 30.8451C77.1231 22.9909 59.4468 25.9057 57.9352 16.1402C57.14 11.035 62.2341 6.8984 67.2758 4.1145C68.9184 4.85629 70.5262 5.68535 72.099 6.61041C76.6862 9.34194 80.8804 12.9025 84.4541 17.2747C86.4026 19.6572 88.0715 22.1618 89.4782 24.7712C90.1598 26.0279 90.7802 27.3107 91.3306 28.611C99.3169 47.3652 94.3626 69.8633 77.7697 83.3988L77.7522 83.4075Z" fill="#6FA3FF"/>
<path d="M31.9055 32.2066C31.9055 32.2066 39.4811 24.1866 47.9916 26.2374C56.5109 28.2882 47.5285 34.2575 47.6683 38.6122C47.8081 42.9757 51.8537 44.5553 50.1411 49.0322C48.4198 53.5091 33.7404 57.9773 30.3327 51.6852C26.925 45.3931 26.8639 39.1446 31.9055 32.1979V32.2066Z" fill="#6FA3FF"/>
<path d="M41.1151 74.8551C41.1151 74.8551 46.2441 76.6704 44.514 79.8906C42.784 83.1196 36.5977 83.5821 33.7929 80.7371C30.9881 77.8921 35.322 73.9912 41.1151 74.8551Z" fill="#6FA3FF"/>
<path d="M68.0972 28.7509C68.0972 28.7509 73.0427 29.5451 71.1117 32.8089C69.1806 36.0728 63.5972 36.4306 62.007 33.3675C60.4167 30.3043 64.2001 29.2222 68.0884 28.7422L68.0972 28.7509Z" fill="#6FA3FF"/>
<circle cx="75.5" cy="74.5" r="19.5" fill="#FF244C"/>
<path d="M83.5 69.5H73V67.25C73 66.4544 73.3161 65.6913 73.8787 65.1287C74.4413 64.5661 75.2044 64.25 76 64.25C77.4409 64.25 78.7375 65.2812 79.015 66.6491C79.0562 66.8423 79.172 67.0116 79.3373 67.1199C79.5026 67.2283 79.7039 67.267 79.8976 67.2277C80.0913 67.1885 80.2616 67.0743 80.3716 66.9101C80.4816 66.746 80.5224 66.545 80.485 66.3509C80.0612 64.2641 78.175 62.75 76 62.75C74.8069 62.7512 73.663 63.2257 72.8194 64.0694C71.9757 64.913 71.5012 66.0569 71.5 67.25V69.5H68.5C68.1022 69.5 67.7206 69.658 67.4393 69.9393C67.158 70.2206 67 70.6022 67 71V81.5C67 81.8978 67.158 82.2794 67.4393 82.5607C67.7206 82.842 68.1022 83 68.5 83H83.5C83.8978 83 84.2794 82.842 84.5607 82.5607C84.842 82.2794 85 81.8978 85 81.5V71C85 70.6022 84.842 70.2206 84.5607 69.9393C84.2794 69.658 83.8978 69.5 83.5 69.5ZM76 77.375C75.7775 77.375 75.56 77.309 75.375 77.1854C75.19 77.0618 75.0458 76.8861 74.9606 76.6805C74.8755 76.475 74.8532 76.2488 74.8966 76.0305C74.94 75.8123 75.0472 75.6118 75.2045 75.4545C75.3618 75.2972 75.5623 75.19 75.7805 75.1466C75.9988 75.1032 76.225 75.1255 76.4305 75.2106C76.6361 75.2958 76.8118 75.44 76.9354 75.625C77.059 75.81 77.125 76.0275 77.125 76.25C77.125 76.5484 77.0065 76.8345 76.7955 77.0455C76.5845 77.2565 76.2984 77.375 76 77.375Z" fill="white"/>
</svg>
