<svg width="96" height="94" viewBox="0 0 96 94" fill="none" xmlns="http://www.w3.org/2000/svg">
<path d="M77.7523 83.4076C72.0378 88.0678 65.5544 91.1658 58.8264 92.7454C44.1034 96.2188 28.2008 92.4487 16.5622 81.9851C14.7797 80.3881 13.102 78.634 11.538 76.7228C7.90309 72.2807 5.22935 67.3675 3.46434 62.236C2.51193 59.4696 1.83039 56.6333 1.41972 53.7796C-0.869557 37.9838 4.95849 21.4288 18.2311 10.5987C21.1407 8.22496 24.2513 6.25267 27.493 4.69055C39.1229 -0.947061 52.4391 -1.4445 64.2525 2.88407C65.2661 3.25933 66.2797 3.66949 67.267 4.10584C68.9097 4.84763 70.5174 5.67669 72.0902 6.60175C76.6775 9.33328 80.8716 12.8939 84.4453 17.2661C86.3938 19.6485 88.0627 22.1532 89.4695 24.7625C90.1511 26.0192 90.7714 27.3021 91.3219 28.6024C99.3082 47.3566 94.3539 69.8547 77.761 83.3901L77.7523 83.4076Z" fill="#0166FF"/>
<path d="M77.7611 83.408C72.0466 88.0769 65.5545 91.1662 58.8265 92.7545C44.1034 96.2191 28.2096 92.4491 16.5622 81.9942C15.0244 80.6153 13.5739 79.123 12.2021 77.5173C22.7485 83.8269 35.3745 85.7293 47.2315 82.9367C53.9596 81.3484 60.4429 78.2591 66.1574 73.5902C82.7503 60.0547 87.7045 37.5653 79.7183 18.8024C79.1678 17.5108 78.5387 16.2192 77.8659 14.9625C76.4591 12.3445 74.7902 9.83982 72.8417 7.46609C72.6233 7.20428 72.4136 6.94247 72.1777 6.68066C76.7213 9.39474 80.8979 12.9466 84.4367 17.2839C86.3852 19.6664 88.0628 22.171 89.4608 24.7891C90.1336 26.0458 90.7627 27.3286 91.3132 28.6289C99.2995 47.3831 94.3539 69.8812 77.7523 83.4167L77.7611 83.408Z" fill="#327AFE"/>
<path d="M35.2696 15.7476C33.7842 22.6942 20.4067 22.7553 16.6845 30.0947C12.9622 37.4341 18.6505 37.6784 17.532 40.8027C16.4136 43.9269 12.1321 45.7247 12.1147 48.0286C12.1059 50.3238 23.3164 58.1605 16.7456 64.7581C10.1749 71.347 10.2098 75.0995 14.0981 78.1714C15.1466 79.0005 16.0117 80.3968 16.5622 82.0026C14.7797 80.4055 13.102 78.6514 11.538 76.7402C7.90309 72.2982 5.22935 67.3849 3.46434 62.2535C2.51193 59.487 1.83039 56.6508 1.41972 53.7971C-0.869557 38.0013 4.95849 21.4463 18.2311 10.6161C21.1407 8.24242 24.2513 6.27013 27.493 4.70801C31.2677 7.19519 36.2132 11.3754 35.2696 15.7563V15.7476Z" fill="#6FA3FF"/>
<path d="M77.7522 83.4075C72.0378 88.0677 65.5544 91.1658 58.8264 92.7454C57.175 90.0313 57.4895 86.558 60.4254 83.5646C67.8699 75.9896 82.0949 73.6857 76.4329 68.8423C70.7708 63.9901 46.5324 78.2848 46.8557 69.4619C47.179 60.6389 71.2951 55.1322 70.7621 52.0953C70.2291 49.0583 68.0185 48.4038 68.534 45.393C69.0408 42.3822 82.8201 38.6994 79.9716 30.8451C77.1231 22.9909 59.4468 25.9057 57.9352 16.1402C57.14 11.035 62.2341 6.8984 67.2758 4.1145C68.9184 4.85629 70.5262 5.68535 72.099 6.61041C76.6862 9.34194 80.8804 12.9025 84.4541 17.2747C86.4026 19.6572 88.0715 22.1618 89.4782 24.7712C90.1598 26.0279 90.7802 27.3107 91.3306 28.611C99.3169 47.3652 94.3626 69.8633 77.7697 83.3988L77.7522 83.4075Z" fill="#6FA3FF"/>
<path d="M31.9055 32.2066C31.9055 32.2066 39.4811 24.1866 47.9916 26.2374C56.5109 28.2882 47.5285 34.2575 47.6683 38.6122C47.8081 42.9757 51.8537 44.5553 50.1411 49.0322C48.4198 53.5091 33.7404 57.9773 30.3327 51.6852C26.925 45.3931 26.8639 39.1446 31.9055 32.1979V32.2066Z" fill="#6FA3FF"/>
<path d="M41.1151 74.8551C41.1151 74.8551 46.2441 76.6704 44.514 79.8906C42.784 83.1196 36.5977 83.5821 33.7929 80.7371C30.9881 77.8921 35.322 73.9912 41.1151 74.8551Z" fill="#6FA3FF"/>
<path d="M68.0972 28.7509C68.0972 28.7509 73.0427 29.5451 71.1117 32.8089C69.1806 36.0728 63.5972 36.4306 62.007 33.3675C60.4167 30.3043 64.2001 29.2222 68.0884 28.7422L68.0972 28.7509Z" fill="#6FA3FF"/>
<circle cx="75.5" cy="74.5" r="19.5" fill="#32C356"/>
<path d="M83.5 70.5H80.5V68.25C80.5 67.0565 80.0259 65.9119 79.182 65.068C78.3381 64.2241 77.1935 63.75 76 63.75C74.8065 63.75 73.6619 64.2241 72.818 65.068C71.9741 65.9119 71.5 67.0565 71.5 68.25V70.5H68.5C68.1022 70.5 67.7206 70.658 67.4393 70.9393C67.158 71.2206 67 71.6022 67 72V82.5C67 82.8978 67.158 83.2794 67.4393 83.5607C67.7206 83.842 68.1022 84 68.5 84H83.5C83.8978 84 84.2794 83.842 84.5607 83.5607C84.842 83.2794 85 82.8978 85 82.5V72C85 71.6022 84.842 71.2206 84.5607 70.9393C84.2794 70.658 83.8978 70.5 83.5 70.5ZM76 78.375C75.7775 78.375 75.56 78.309 75.375 78.1854C75.19 78.0618 75.0458 77.8861 74.9606 77.6805C74.8755 77.475 74.8532 77.2488 74.8966 77.0305C74.94 76.8123 75.0472 76.6118 75.2045 76.4545C75.3618 76.2972 75.5623 76.19 75.7805 76.1466C75.9988 76.1032 76.225 76.1255 76.4305 76.2106C76.6361 76.2958 76.8118 76.44 76.9354 76.625C77.059 76.81 77.125 77.0275 77.125 77.25C77.125 77.5484 77.0065 77.8345 76.7955 78.0455C76.5845 78.2565 76.2984 78.375 76 78.375ZM79 70.5H73V68.25C73 67.4544 73.3161 66.6913 73.8787 66.1287C74.4413 65.5661 75.2044 65.25 76 65.25C76.7956 65.25 77.5587 65.5661 78.1213 66.1287C78.6839 66.6913 79 67.4544 79 68.25V70.5Z" fill="white"/>
</svg>
