<svg width="98" height="10" viewBox="0 0 98 10" fill="none" xmlns="http://www.w3.org/2000/svg">
<path d="M2.94039 10.0066H0.854675V0.0065918H2.94039V10.0066Z" fill="#21272A"/>
<path d="M16.2599 6.89231V0.0065918H18.3313V10.0066H16.2028L11.1742 3.10659V10.0066H9.08853V0.0065918H11.2171L16.2599 6.89231Z" fill="#21272A"/>
<path d="M23.7077 0.0065918H30.8649V1.84945H28.3219V10.0066H26.2506V1.84945H23.7077V0.0065918Z" fill="#21272A"/>
<path d="M42.3714 0.0065918V1.84945H38.3143V3.99231H41.8143V5.83517H38.3143V8.16375H42.3714V10.0066H36.2286V0.0065918H42.3714Z" fill="#21272A"/>
<path d="M56.2869 10.0066H53.7584L50.9583 5.89231H50.2869V10.0066H48.2012V0.0065918H52.2298C53.2583 0.0065918 54.0441 0.282783 54.5869 0.835164C55.1393 1.38754 55.4155 2.11136 55.4155 3.00659C55.4155 4.46373 54.6917 5.35421 53.244 5.67802L56.2869 10.0066ZM50.2869 4.19231H51.9298C52.3869 4.19231 52.7345 4.10183 52.9726 3.92088C53.2203 3.7304 53.3441 3.42564 53.3441 3.00659C53.3441 2.59707 53.2203 2.30183 52.9726 2.12088C52.7345 1.93993 52.3869 1.84945 51.9298 1.84945H50.2869V4.19231Z" fill="#21272A"/>
<path d="M68.852 6.89231V0.0065918H70.9234V10.0066H68.7949L63.7663 3.10659V10.0066H61.6806V0.0065918H63.8091L68.852 6.89231Z" fill="#21272A"/>
<path d="M81.9569 4.84945L85.4144 10.0066H83.0139L80.8285 6.57803L78.6567 10.0066H76.2713L79.7144 4.86373L76.4571 0.0065918H78.8282L80.8285 3.13516L82.8424 0.0065918H85.2286L81.9569 4.84945Z" fill="#21272A"/>
<path d="M89.9882 0.0065918H97.1453V1.84945H94.6027V10.0066H92.5309V1.84945H89.9882V0.0065918Z" fill="#21272A"/>
</svg>
