<svg width="96" height="94" viewBox="0 0 96 94" fill="none" xmlns="http://www.w3.org/2000/svg">
  <path d="M77.7523 83.4076C72.0378 88.0678 65.5544 91.1658 58.8264 92.7454C44.1034 96.2188 28.2008 92.4487 16.5622 81.9851C14.7797 80.3881 13.102 78.634 11.538 76.7228C7.90309 72.2807 5.22935 67.3675 3.46434 62.236C2.51193 59.4696 1.83039 56.6333 1.41972 53.7796C-0.869557 37.9838 4.95849 21.4288 18.2311 10.5987C21.1407 8.22496 24.2513 6.25267 27.493 4.69055C39.1229 -0.947061 52.4391 -1.4445 64.2525 2.88407C65.2661 3.25933 66.2797 3.66949 67.267 4.10584C68.9097 4.84763 70.5174 5.67669 72.0902 6.60175C76.6775 9.33328 80.8716 12.8939 84.4453 17.2661C86.3938 19.6485 88.0627 22.1532 89.4695 24.7625C90.1511 26.0192 90.7714 27.3021 91.3219 28.6024C99.3082 47.3566 94.3539 69.8547 77.761 83.3901L77.7523 83.4076Z" fill="#0166FF"/>
  <path d="M77.7611 83.408C72.0467 88.0769 65.5545 91.1662 58.8265 92.7545C44.1035 96.2191 28.2096 92.4491 16.5623 81.9942C15.0244 80.6153 13.574 79.123 12.2021 77.5173C22.7486 83.8269 35.3745 85.7293 47.2316 82.9367C53.9596 81.3484 60.443 78.2591 66.1574 73.5902C82.7503 60.0547 87.7046 37.5653 79.7183 18.8024C79.1679 17.5108 78.5388 16.2192 77.866 14.9625C76.4592 12.3445 74.7903 9.83982 72.8418 7.46609C72.6233 7.20428 72.4136 6.94247 72.1777 6.68066C76.7213 9.39474 80.8979 12.9466 84.4367 17.2839C86.3852 19.6664 88.0629 22.171 89.4609 24.7891C90.1337 26.0458 90.7628 27.3286 91.3133 28.6289C99.2995 47.3831 94.354 69.8812 77.7524 83.4167L77.7611 83.408Z" fill="#327AFE"/>
  <path d="M35.2696 15.7476C33.7842 22.6942 20.4067 22.7553 16.6845 30.0947C12.9622 37.4341 18.6505 37.6784 17.532 40.8027C16.4136 43.9269 12.1321 45.7247 12.1147 48.0286C12.1059 50.3238 23.3164 58.1605 16.7456 64.7581C10.1749 71.347 10.2098 75.0995 14.0981 78.1714C15.1466 79.0005 16.0117 80.3968 16.5622 82.0026C14.7797 80.4055 13.102 78.6514 11.538 76.7402C7.90309 72.2982 5.22935 67.3849 3.46434 62.2535C2.51193 59.487 1.83039 56.6508 1.41972 53.7971C-0.869557 38.0013 4.95849 21.4463 18.2311 10.6161C21.1407 8.24242 24.2513 6.27013 27.493 4.70801C31.2677 7.19519 36.2132 11.3754 35.2696 15.7563V15.7476Z" fill="#6FA3FF"/>
  <path d="M77.7522 83.4075C72.0378 88.0677 65.5544 91.1658 58.8264 92.7454C57.175 90.0313 57.4895 86.558 60.4254 83.5646C67.8699 75.9896 82.0949 73.6857 76.4329 68.8423C70.7708 63.9901 46.5324 78.2848 46.8557 69.4619C47.179 60.6389 71.2951 55.1322 70.7621 52.0953C70.2291 49.0583 68.0185 48.4038 68.534 45.393C69.0408 42.3822 82.8201 38.6994 79.9716 30.8451C77.1231 22.9909 59.4468 25.9057 57.9352 16.1402C57.14 11.035 62.2341 6.8984 67.2758 4.1145C68.9184 4.85629 70.5262 5.68535 72.099 6.61041C76.6862 9.34194 80.8804 12.9025 84.4541 17.2747C86.4026 19.6572 88.0715 22.1618 89.4782 24.7712C90.1598 26.0279 90.7802 27.3107 91.3306 28.611C99.3169 47.3652 94.3626 69.8633 77.7697 83.3988L77.7522 83.4075Z" fill="#6FA3FF"/>
  <path d="M31.9056 32.2066C31.9056 32.2066 39.4812 24.1866 47.9917 26.2374C56.5109 28.2882 47.5286 34.2575 47.6684 38.6122C47.8082 42.9757 51.8538 44.5553 50.1412 49.0322C48.4198 53.5091 33.7405 57.9773 30.3328 51.6852C26.9251 45.3931 26.8639 39.1446 31.9056 32.1979V32.2066Z" fill="#6FA3FF"/>
  <path d="M41.115 74.8551C41.115 74.8551 46.244 76.6704 44.514 79.8906C42.7839 83.1196 36.5976 83.5821 33.7928 80.7371C30.988 77.8921 35.3219 73.9912 41.115 74.8551Z" fill="#6FA3FF"/>
  <path d="M68.0972 28.7509C68.0972 28.7509 73.0427 29.5451 71.1117 32.8089C69.1806 36.0728 63.5972 36.4306 62.007 33.3675C60.4167 30.3043 64.2001 29.2222 68.0884 28.7422L68.0972 28.7509Z" fill="#6FA3FF"/>
  <circle cx="75.5" cy="74.5" r="19.5" fill="#FF9500"/>
  <path d="M77.2137 65.1214V68.1117C77.2137 68.4091 77.0956 68.6943 76.8853 68.9046C76.675 69.1149 76.3898 69.2331 76.0924 69.2331C75.7949 69.2331 75.5097 69.1149 75.2994 68.9046C75.0891 68.6943 74.971 68.4091 74.971 68.1117V65.1214C74.971 64.824 75.0891 64.5387 75.2994 64.3284C75.5097 64.1181 75.7949 64 76.0924 64C76.3898 64 76.675 64.1181 76.8853 64.3284C77.0956 64.5387 77.2137 64.824 77.2137 65.1214ZM85.0633 72.971H82.073C81.7756 72.971 81.4904 73.0891 81.2801 73.2994C81.0698 73.5097 80.9516 73.7949 80.9516 74.0924C80.9516 74.3898 81.0698 74.675 81.2801 74.8853C81.4904 75.0956 81.7756 75.2137 82.073 75.2137H85.0633C85.3607 75.2137 85.646 75.0956 85.8563 74.8853C86.0666 74.675 86.1847 74.3898 86.1847 74.0924C86.1847 73.7949 86.0666 73.5097 85.8563 73.2994C85.646 73.0891 85.3607 72.971 85.0633 72.971ZM81.1142 77.5284C81.0099 77.4241 80.8861 77.3414 80.7498 77.2849C80.6135 77.2285 80.4674 77.1994 80.3199 77.1994C80.1724 77.1994 80.0263 77.2285 79.89 77.2849C79.7538 77.3414 79.6299 77.4241 79.5256 77.5284C79.4213 77.6327 79.3386 77.7566 79.2821 77.8929C79.2257 78.0291 79.1966 78.1752 79.1966 78.3227C79.1966 78.4702 79.2257 78.6163 79.2821 78.7526C79.3386 78.8889 79.4213 79.0127 79.5256 79.117L81.6403 81.2318C81.851 81.4424 82.1367 81.5608 82.4346 81.5608C82.7326 81.5608 83.0183 81.4424 83.2289 81.2318C83.4396 81.0211 83.558 80.7354 83.558 80.4374C83.558 80.1395 83.4396 79.8538 83.2289 79.6431L81.1142 77.5284ZM76.0924 78.9516C75.7949 78.9516 75.5097 79.0698 75.2994 79.2801C75.0891 79.4904 74.971 79.7756 74.971 80.073V83.0633C74.971 83.3607 75.0891 83.646 75.2994 83.8563C75.5097 84.0666 75.7949 84.1847 76.0924 84.1847C76.3898 84.1847 76.675 84.0666 76.8853 83.8563C77.0956 83.646 77.2137 83.3607 77.2137 83.0633V80.073C77.2137 79.7756 77.0956 79.4904 76.8853 79.2801C76.675 79.0698 76.3898 78.9516 76.0924 78.9516ZM71.0705 77.5284L68.9558 79.6431C68.7451 79.8538 68.6267 80.1395 68.6267 80.4374C68.6267 80.7354 68.7451 81.0211 68.9558 81.2318C69.1664 81.4424 69.4521 81.5608 69.7501 81.5608C70.048 81.5608 70.3337 81.4424 70.5444 81.2318L72.6591 79.117C72.8697 78.9064 72.9881 78.6206 72.9881 78.3227C72.9881 78.0248 72.8697 77.7391 72.6591 77.5284C72.4484 77.3178 72.1627 77.1994 71.8648 77.1994C71.5669 77.1994 71.2811 77.3178 71.0705 77.5284ZM71.2331 74.0924C71.2331 73.7949 71.1149 73.5097 70.9046 73.2994C70.6943 73.0891 70.4091 72.971 70.1117 72.971H67.1214C66.824 72.971 66.5387 73.0891 66.3284 73.2994C66.1181 73.5097 66 73.7949 66 74.0924C66 74.3898 66.1181 74.675 66.3284 74.8853C66.5387 75.0956 66.824 75.2137 67.1214 75.2137H70.1117C70.4091 75.2137 70.6943 75.0956 70.9046 74.8853C71.1149 74.675 71.2331 74.3898 71.2331 74.0924ZM70.5416 66.9558C70.3309 66.7451 70.0452 66.6267 69.7473 66.6267C69.4493 66.6267 69.1636 66.7451 68.9529 66.9558C68.7423 67.1664 68.6239 67.4521 68.6239 67.7501C68.6239 68.048 68.7423 68.3337 68.9529 68.5444L71.0705 70.6563C71.2811 70.8669 71.5669 70.9853 71.8648 70.9853C72.1627 70.9853 72.4484 70.8669 72.6591 70.6563C72.8697 70.4456 72.9881 70.1599 72.9881 69.862C72.9881 69.5641 72.8697 69.2783 72.6591 69.0677L70.5416 66.9558Z" fill="white"/>
  </svg>

